<svg xmlns="http://www.w3.org/2000/svg" viewBox="0 0 400 280" role="img" aria-label="Diagramme en barres production électrique">
  <rect width="400" height="280" fill="#f8fafc"/>
  <path d="M52 230H370M52 45V230" stroke="#334155" stroke-width="1.5"/>
  <g font-size="11" fill="#334155"><text x="62" y="250">1995</text><text x="122" y="250">2001</text><text x="182" y="250">2006</text><text x="242" y="250">2011</text><text x="302" y="250">2016</text></g>
  <g fill="#5b6ee1"><rect x="65" y="145" width="18" height="85"/><rect x="125" y="135" width="18" height="95"/><rect x="185" y="115" width="18" height="115"/><rect x="245" y="120" width="18" height="110"/><rect x="305" y="95" width="18" height="135"/></g>
  <g fill="#14b8a6"><rect x="85" y="185" width="18" height="45"/><rect x="145" y="175" width="18" height="55"/><rect x="205" y="170" width="18" height="60"/><rect x="265" y="160" width="18" height="70"/><rect x="325" y="165" width="18" height="65"/></g>
  <text x="245" y="40" font-size="12" fill="#5b6ee1">Nucléaire</text><text x="315" y="40" font-size="12" fill="#14b8a6">Autres</text>
</svg>
