<svg xmlns="http://www.w3.org/2000/svg" viewBox="0 0 400 280" role="img" aria-label="Courbe avec deux intersections">
  <rect width="400" height="280" fill="#f8fafc"/>
  <path d="M40 140H360M200 30V245" stroke="#334155" stroke-width="1.5"/>
  <g stroke="#cbd5e1" stroke-width="1"><path d="M80 30V245M120 30V245M160 30V245M240 30V245M280 30V245M320 30V245"/><path d="M40 60H360M40 100H360M40 180H360M40 220H360"/></g>
  <path d="M45 225 C90 55 132 55 165 140 S250 230 300 105 S345 60 360 78" fill="none" stroke="#5b6ee1" stroke-width="4"/>
  <circle cx="165" cy="140" r="5" fill="#14b8a6"/><circle cx="286" cy="140" r="5" fill="#14b8a6"/>
  <text x="348" y="156" font-size="13" fill="#334155">x</text><text x="210" y="42" font-size="13" fill="#334155">y</text>
</svg>
