<svg xmlns="http://www.w3.org/2000/svg" viewBox="0 0 400 280" role="img" aria-label="Courbe cubique">
  <rect width="400" height="280" fill="#f8fafc"/>
  <path d="M40 170H360M200 30V245" stroke="#334155" stroke-width="1.5"/>
  <g stroke="#cbd5e1" stroke-width="1"><path d="M80 30V245M120 30V245M160 30V245M240 30V245M280 30V245M320 30V245"/><path d="M40 60H360M40 115H360M40 225H360"/></g>
  <path d="M65 52 C120 82 165 82 200 95 S250 170 280 245" fill="none" stroke="#5b6ee1" stroke-width="4"/>
  <circle cx="80" cy="60" r="4" fill="#14b8a6"/><circle cx="200" cy="95" r="4" fill="#14b8a6"/><circle cx="240" cy="170" r="5" fill="#14b8a6"/><circle cx="280" cy="245" r="4" fill="#14b8a6"/>
  <text x="70" y="45" font-size="11" fill="#334155">(-3;7)</text><text x="210" y="92" font-size="11" fill="#334155">(0;5)</text><text x="245" y="164" font-size="11" fill="#334155">(1;0)</text>
</svg>
